<?xml version="1.0" encoding="UTF-8" standalone="no"?>
<!-- Created with PhotoLine 24.40b19 (www.pl32.de) -->
<!DOCTYPE svg PUBLIC "-//W3C//DTD SVG 1.1//EN" "http://www.w3.org/Graphics/SVG/1.1/DTD/svg11.dtd">
<svg width="402" height="410" viewBox="0 0 402 410" version="1.1" xmlns="http://www.w3.org/2000/svg" xmlns:xlink="http://www.w3.org/1999/xlink">
  <g transform="matrix(1 0 0 1 -55 -55)">
    <title>Zimmero Bell AI Assistant</title>
    <desc>Eine süße Rezeptionsglocke mit Augen in den Farben des Zimmero-Logos.</desc>
    <path fill="#4a6fe3" d="M91 139 C91 126 101 116 114 116 C101 116 91 106 91 93 C91 106 81 116 68 116 C81 116 91 126 91 139 Z"/>
    <path fill="#4a6fe3" d="M421 177 C421 167 429 159 439 159 C429 159 421 151 421 141 C421 151 413 159 403 159 C413 159 421 167 421 177 Z"/>
    <path fill="#ffae42" d="M419 112 C419 107.59 422.59 104 427 104 C431.41 104 435 107.59 435 112 C435 116.41 431.41 120 427 120 C422.59 120 419 116.41 419 112 Z"/>
    <path stroke-width="16" stroke-linejoin="round" fill="#4a6fe3" stroke="#1e293b" d="M214 103 C214 81 232 63 254 63 L258 63 C280 63 298 81 298 103 L298 122 L214 122 Z"/>
    <path fill="#1e293b" d="M215.5 113 L296.5 113 C308.36 113 318 122.64 318 134.5 L318 134.5 C318 146.36 308.36 156 296.5 156 L215.5 156 C203.64 156 194 146.36 194 134.5 L194 134.5 C194 122.64 203.64 113 215.5 113 Z"/>
    <path stroke-width="18" stroke-linejoin="round" fill="#ffae42" stroke="#1e293b" d="M112 331 C121 223 176 151 256 151 C336 151 391 223 400 331 Z"/>
    <path fill="#ffffff" fill-opacity="0.23" d="M142 313 C155 240 192 189 245 172 C188 181 146 234 134 313 Z"/>
    <g transform="matrix(1 0 0 1 0 -10.666672)">
      <path fill="#1e293b" d="M192 252 C192 238.76 200.07 228 210 228 C219.93 228 228 238.76 228 252 C228 265.24 219.93 276 210 276 C200.07 276 192 265.24 192 252 Z"/>
      <path fill="#1e293b" d="M284 252 C284 238.76 292.07 228 302 228 C311.93 228 320 238.76 320 252 C320 265.24 311.93 276 302 276 C292.07 276 284 265.24 284 252 Z"/>
    </g>
    <g transform="matrix(1 0 0 1 0 -10.666672)">
      <path fill="#ffffff" d="M198 244 C198 240.69 200.69 238 204 238 C207.31 238 210 240.69 210 244 C210 247.31 207.31 250 204 250 C200.69 250 198 247.31 198 244 Z"/>
      <path fill="#ffffff" d="M290 244 C290 240.69 292.69 238 296 238 C299.31 238 302 240.69 302 244 C302 247.31 299.31 250 296 250 C292.69 250 290 247.31 290 244 Z"/>
    </g>
    <g transform="matrix(1 0 0 1 0 -10.666656)">
      <path transform="matrix(1 0 0 1 0 10.666656)" stroke-width="13" stroke-linecap="round" fill="none" stroke="#1e293b" d="M222 280.33 C233 293.33 245 299.33 256 299.33 C267 299.33 279 293.33 290 280.33"/>
    </g>
    <path fill="#f58f6c" fill-opacity="0.55" d="M156 286 C156 280.48 164.96 276 176 276 C187.04 276 196 280.48 196 286 C196 291.52 187.04 296 176 296 C164.96 296 156 291.52 156 286 Z"/>
    <path fill="#f58f6c" fill-opacity="0.55" d="M316 286 C316 280.48 324.96 276 336 276 C347.04 276 356 280.48 356 286 C356 291.52 347.04 296 336 296 C324.96 296 316 291.52 316 286 Z"/>
    <path stroke-width="18" fill="#4a6fe3" stroke="#1e293b" d="M95 322 L417 322 C434 322 448 336 448 353 L448 362 C448 379 434 393 417 393 L95 393 C78 393 64 379 64 362 L64 353 C64 336 78 322 95 322 Z"/>
    <path opacity="0.22" stroke-width="8" stroke-linecap="round" stroke="#ffffff" d="M104 341 L408 341"/>
    <path fill="#1e293b" d="M117 392 L395 392 C413 392 428 407 428 425 L428 436 L84 436 L84 425 C84 407 99 392 117 392 Z"/>
    <path fill="#1e293b" d="M87.5 426 L424.5 426 C435.26 426 444 434.74 444 445.5 L444 445.5 C444 456.26 435.26 465 424.5 465 L87.5 465 C76.74 465 68 456.26 68 445.5 L68 445.5 C68 434.74 76.74 426 87.5 426 Z"/>
  </g>
</svg>
